<?xml version="1.0" standalone="no"?>
<!DOCTYPE svg PUBLIC "-//W3C//DTD SVG 20010904//EN"
 "http://www.w3.org/TR/2001/REC-SVG-20010904/DTD/svg10.dtd">
<svg version="1.0" xmlns="http://www.w3.org/2000/svg"
 width="263.000000pt" height="71.000000pt" viewBox="0 0 263.000000 71.000000"
 preserveAspectRatio="xMidYMid meet">

<g transform="translate(0.000000,71.000000) scale(0.100000,-0.100000)"
fill="#000000" stroke="none">
<path d="M2100 661 c-16 -31 -12 -59 12 -75 24 -17 36 -13 47 17 20 53 -34
104 -59 58z"/>
<path d="M2198 655 c-9 -19 -7 -29 6 -50 23 -36 50 -29 54 13 6 58 -38 85 -60
37z"/>
<path d="M2292 611 c-18 -11 -11 -51 10 -65 14 -8 21 -7 34 6 16 16 16 18 0
42 -18 28 -24 30 -44 17z"/>
<path d="M2037 583 c-12 -11 -8 -68 5 -81 17 -17 45 -15 52 4 10 27 7 43 -14
64 -21 21 -32 24 -43 13z"/>
<path d="M2136 538 c-7 -13 -20 -46 -27 -75 -10 -42 -10 -55 0 -67 18 -21 49
-20 96 4 22 11 54 20 72 20 33 0 53 21 53 54 0 9 -24 31 -52 51 -64 43 -119
48 -142 13z"/>
<path d="M2466 411 c-23 -25 -17 -55 12 -59 32 -5 54 16 50 47 -4 33 -37 39
-62 12z"/>
<path d="M2356 404 c-18 -18 -21 -50 -5 -59 34 -22 84 30 59 60 -16 19 -35 19
-54 -1z"/>
<path d="M2544 346 c-12 -31 0 -61 25 -61 31 0 50 28 35 53 -14 22 -52 28 -60
8z"/>
<path d="M2373 309 c-69 -32 -67 -71 6 -109 20 -10 47 -30 60 -44 24 -26 45
-31 75 -20 13 5 16 22 16 80 0 62 -3 76 -22 94 -27 25 -78 25 -135 -1z"/>
<path d="M2567 243 c-10 -10 -8 -71 2 -77 29 -18 63 42 40 70 -12 15 -31 18
-42 7z"/>
</g>
</svg>
